# xmcd
#
# Track frame offsets:
#	150
#	20575
#	41098
#	59174
#	77991
#	95989
#	112286
#	134927
#	154198
#	178336
#	201471
#	222094
#
# Disc length: 3185 seconds
#
# Revision: 0
# Processed by: cddbd v1.5.2PL0 Copyright (c) Steve Scherf et al.
# Submitted via: EasyCDDAExtractor 10.2.0.1
#
DISCID=cc0c6f0c
DTITLE=Yö - Valtakunta
DYEAR=2007
DGENRE=pop
TTITLE0=Valtakunta
TTITLE1=Rakkautta vain?
TTITLE2=Satukirjan sankari
TTITLE3=Taikasanat
TTITLE4=Onnellisten juoni
TTITLE5=Yksinäiset
TTITLE6=Uneeni et tulla saa
TTITLE7=Deadline
TTITLE8=Läksiäiset
TTITLE9=Unohtaa
TTITLE10=Saattajat
TTITLE11=Hengissä
EXTD=
EXTT0=
EXTT1=
EXTT2=
EXTT3=
EXTT4=
EXTT5=
EXTT6=
EXTT7=
EXTT8=
EXTT9=
EXTT10=
EXTT11=
PLAYORDER=
